<?xml version="1.0" encoding="UTF-8" standalone="no"?>
<!-- Created with Inkscape (http://www.inkscape.org/) -->

<svg
   width="735.90405"
   height="735.90411"
   viewBox="0 0 194.70795 194.70796"
   version="1.1"
   id="svg1"
   sodipodi:docname="logo.svg"
   inkscape:version="1.4.2 (f4327f4, 2025-05-13)"
   xmlns:inkscape="http://www.inkscape.org/namespaces/inkscape"
   xmlns:sodipodi="http://sodipodi.sourceforge.net/DTD/sodipodi-0.dtd"
   xmlns:xlink="http://www.w3.org/1999/xlink"
   xmlns="http://www.w3.org/2000/svg"
   xmlns:svg="http://www.w3.org/2000/svg">
  <sodipodi:namedview
     id="namedview1"
     pagecolor="#ffffff"
     bordercolor="#000000"
     borderopacity="0.25"
     inkscape:showpageshadow="2"
     inkscape:pageopacity="0.0"
     inkscape:pagecheckerboard="0"
     inkscape:deskcolor="#d1d1d1"
     inkscape:document-units="mm"
     inkscape:zoom="0.77542055"
     inkscape:cx="481.02929"
     inkscape:cy="519.07317"
     inkscape:window-width="1920"
     inkscape:window-height="1009"
     inkscape:window-x="1912"
     inkscape:window-y="95"
     inkscape:window-maximized="1"
     inkscape:current-layer="layer2" />
  <defs
     id="defs1">
    <inkscape:path-effect
       effect="fillet_chamfer"
       id="path-effect68"
       is_visible="true"
       lpeversion="1"
       nodesatellites_param="F,0,0,1,0,3,0,1 @ F,0,0,1,0,3,0,1 @ F,0,0,1,0,3,0,1 @ F,0,0,1,0,3,0,1"
       radius="0"
       unit="px"
       method="auto"
       mode="F"
       chamfer_steps="1"
       flexible="false"
       use_knot_distance="true"
       apply_no_radius="true"
       apply_with_radius="true"
       only_selected="false"
       hide_knots="false" />
    <inkscape:path-effect
       effect="fillet_chamfer"
       id="path-effect67"
       is_visible="true"
       lpeversion="1"
       nodesatellites_param="F,0,0,1,0,3,0,1 @ F,0,0,1,0,3,0,1 @ F,0,0,1,0,0,0,1 @ F,0,0,1,0,0,0,1"
       radius="0"
       unit="px"
       method="auto"
       mode="F"
       chamfer_steps="1"
       flexible="false"
       use_knot_distance="true"
       apply_no_radius="true"
       apply_with_radius="true"
       only_selected="false"
       hide_knots="false" />
    <linearGradient
       id="linearGradient43"
       inkscape:collect="always">
      <stop
         style="stop-color:#92cbf4;stop-opacity:1;"
         offset="0"
         id="stop43" />
      <stop
         style="stop-color:#c5c5c5;stop-opacity:0;"
         offset="1"
         id="stop44" />
    </linearGradient>
    <inkscape:path-effect
       effect="fillet_chamfer"
       id="path-effect8"
       is_visible="true"
       lpeversion="1"
       nodesatellites_param="F,0,0,1,0,2,0,1 @ F,0,0,1,0,0,0,1 @ F,0,0,1,0,0,0,1 @ F,0,0,1,0,0,0,1"
       radius="0"
       unit="px"
       method="auto"
       mode="F"
       chamfer_steps="1"
       flexible="false"
       use_knot_distance="true"
       apply_no_radius="true"
       apply_with_radius="true"
       only_selected="false"
       hide_knots="false" />
    <inkscape:path-effect
       effect="clone_original"
       linkeditem=""
       id="path-effect7"
       is_visible="true"
       lpeversion="1"
       method="d"
       attributes=""
       css_properties=""
       allow_transforms="true" />
    <inkscape:path-effect
       effect="fillet_chamfer"
       id="path-effect6"
       is_visible="true"
       lpeversion="1"
       nodesatellites_param="F,0,0,1,0,0,0,1 @ F,0,0,1,0,3,0,1 @ F,0,0,1,0,0,0,1 @ F,0,0,1,0,0,0,1"
       radius="0"
       unit="px"
       method="auto"
       mode="F"
       chamfer_steps="1"
       flexible="false"
       use_knot_distance="true"
       apply_no_radius="true"
       apply_with_radius="true"
       only_selected="false"
       hide_knots="false" />
    <inkscape:path-effect
       effect="fillet_chamfer"
       id="path-effect4"
       is_visible="true"
       lpeversion="1"
       nodesatellites_param="F,0,0,1,0,5,0,1 @ F,0,0,1,0,5,0,1 @ F,0,0,1,0,0,0,1 @ F,0,0,1,0,0,0,1"
       radius="0"
       unit="px"
       method="auto"
       mode="F"
       chamfer_steps="1"
       flexible="false"
       use_knot_distance="true"
       apply_no_radius="true"
       apply_with_radius="true"
       only_selected="false"
       hide_knots="false" />
    <inkscape:path-effect
       effect="fillet_chamfer"
       id="path-effect20"
       is_visible="true"
       lpeversion="1"
       nodesatellites_param="F,0,0,1,0,1,0,1 @ F,0,0,1,0,1,0,1 @ F,0,0,1,0,0,0,1 @ F,0,0,1,0,0,0,1"
       radius="0"
       unit="px"
       method="auto"
       mode="F"
       chamfer_steps="1"
       flexible="false"
       use_knot_distance="true"
       apply_no_radius="true"
       apply_with_radius="true"
       only_selected="false"
       hide_knots="false" />
    <inkscape:path-effect
       effect="fillet_chamfer"
       id="path-effect3"
       is_visible="true"
       lpeversion="1"
       nodesatellites_param="F,0,0,1,0,1,0,1 @ F,0,0,1,0,1,0,1 @ F,0,0,1,0,0,0,1 @ F,0,0,1,0,0,0,1"
       radius="0"
       unit="px"
       method="auto"
       mode="F"
       chamfer_steps="1"
       flexible="false"
       use_knot_distance="true"
       apply_no_radius="true"
       apply_with_radius="true"
       only_selected="false"
       hide_knots="false" />
    <inkscape:path-effect
       effect="fillet_chamfer"
       id="path-effect1"
       is_visible="true"
       lpeversion="1"
       nodesatellites_param="F,0,0,1,0,5,0,1 @ IF,0,0,1,0,5,0,1 @ F,0,0,1,0,0,0,1 @ F,0,0,1,0,0,0,1"
       radius="0"
       unit="px"
       method="auto"
       mode="F"
       chamfer_steps="1"
       flexible="false"
       use_knot_distance="true"
       apply_no_radius="true"
       apply_with_radius="true"
       only_selected="false"
       hide_knots="false" />
    <inkscape:path-effect
       effect="fillet_chamfer"
       id="path-effect11"
       is_visible="true"
       lpeversion="1"
       nodesatellites_param="F,0,0,1,0,5,0,1 @ F,0,0,1,0,5,0,1 @ F,0,0,1,0,0,0,1 @ F,0,0,1,0,0,0,1"
       radius="0"
       unit="px"
       method="auto"
       mode="F"
       chamfer_steps="1"
       flexible="false"
       use_knot_distance="true"
       apply_no_radius="true"
       apply_with_radius="true"
       only_selected="false"
       hide_knots="false" />
    <inkscape:path-effect
       effect="fillet_chamfer"
       id="path-effect2"
       is_visible="true"
       lpeversion="1"
       nodesatellites_param="F,0,0,1,0,1.3229166,0,1 @ F,0,0,1,0,1.3229166,0,1 @ F,0,0,1,0,0,0,1 @ F,0,0,1,0,0,0,1"
       radius="5"
       unit="px"
       method="auto"
       mode="F"
       chamfer_steps="1"
       flexible="false"
       use_knot_distance="true"
       apply_no_radius="true"
       apply_with_radius="true"
       only_selected="false"
       hide_knots="false" />
    <linearGradient
       inkscape:collect="always"
       xlink:href="#linearGradient43"
       id="linearGradient44"
       x1="104.62561"
       y1="245.85396"
       x2="104.62561"
       y2="51.146011"
       gradientUnits="userSpaceOnUse"
       gradientTransform="translate(-0.3741773)" />
  </defs>
  <g
     id="layer1"
     inkscape:label="Shop"
     transform="translate(0.3741773,-2.9104157)"
     inkscape:groupmode="layer"
     style="display:inline">
    <rect
       style="display:inline;fill:#f1dcc7;fill-opacity:1;stroke:#dda774;stroke-width:5;stroke-linejoin:round;stroke-dasharray:none;stroke-opacity:1;paint-order:stroke fill markers"
       id="rect4"
       width="80"
       height="59.097916"
       x="64.999794"
       y="152.42081"
       transform="translate(-7.6458151,-51.146001)"
       inkscape:label="head/shop" />
    <rect
       style="fill:#bf8041;fill-opacity:1;fill-rule:nonzero;stroke:#734d26;stroke-width:3.53266;stroke-linejoin:round;stroke-dasharray:none;stroke-opacity:1;paint-order:stroke fill markers"
       id="rect44"
       width="20"
       height="25"
       x="87.353981"
       y="133.55324"
       inkscape:label="nose/door" />
    <rect
       style="fill:#e5e5e5;fill-opacity:1;fill-rule:nonzero;stroke:#b2b2b2;stroke-width:4.508;stroke-linejoin:round;stroke-dasharray:none;stroke-dashoffset:0;stroke-opacity:1;paint-order:stroke fill markers"
       id="rect45-8"
       width="15.492352"
       height="10.492352"
       x="64.607826"
       y="130.12656"
       inkscape:label="left-eye/window" />
    <rect
       style="display:inline;fill:#e5e5e5;fill-opacity:1;fill-rule:nonzero;stroke:#b2b2b2;stroke-width:4.508;stroke-linecap:butt;stroke-linejoin:round;stroke-dasharray:none;stroke-dashoffset:0;stroke-opacity:1;paint-order:stroke fill markers"
       id="rect45-8-6"
       width="15.492352"
       height="10.492352"
       x="114.60782"
       y="130.12656"
       inkscape:label="right-eye/window" />
    <path
       style="display:inline;opacity:1;fill:#000000;fill-opacity:1;fill-rule:nonzero;stroke:none;stroke-width:5;stroke-linecap:round;stroke-linejoin:round;stroke-miterlimit:4;stroke-dasharray:none;stroke-dashoffset:0;stroke-opacity:1;paint-order:stroke fill markers"
       id="rect67"
       width="105"
       height="29.342001"
       x="44.853981"
       y="84.536003"
       inkscape:label="over hair"
       inkscape:path-effect="#path-effect68"
       sodipodi:type="rect"
       d="m 47.853981,84.536003 h 98.999999 a 3,3 45 0 1 3,3 V 110.878 a 3,3 135 0 1 -3,3 H 47.853981 a 3,3 45 0 1 -3,-3 V 87.536003 a 3,3 135 0 1 3,-3 z" />
    <g
       inkscape:groupmode="layer"
       id="layer4"
       inkscape:label="hair strip 2"
       transform="translate(0,2.9104167)"
       style="display:inline">
      <circle
         style="display:inline;fill:#000000;stroke:#000000;stroke-width:5;stroke-linejoin:round;stroke-dasharray:none;stroke-opacity:1;paint-order:stroke fill markers"
         id="path5-8"
         cx="84.999794"
         cy="162.524"
         r="10"
         transform="translate(-7.6458151,-54.056418)" />
      <rect
         style="display:inline;fill:#000000;stroke:none;stroke-width:5;stroke-linejoin:round;stroke-dasharray:none;stroke-opacity:1;paint-order:stroke fill markers"
         id="rect6-9"
         width="20"
         height="24.341999"
         x="74.999794"
         y="138.18201"
         transform="translate(-7.6458151,-54.056418)" />
    </g>
    <g
       inkscape:groupmode="layer"
       id="layer3"
       inkscape:label="hair strip 1"
       transform="translate(0,2.9104167)"
       style="display:inline">
      <circle
         style="display:inline;fill:#333333;stroke:#000000;stroke-width:5;stroke-linecap:round;stroke-linejoin:bevel;stroke-dasharray:none;stroke-opacity:1;paint-order:stroke fill markers"
         id="path5"
         cx="57.353977"
         cy="108.468"
         r="10" />
      <path
         style="display:inline;fill:#333333;stroke:none;stroke-width:5;stroke-linejoin:round;stroke-dasharray:none;stroke-opacity:1;paint-order:stroke fill markers"
         id="rect6"
         width="20"
         height="24.341999"
         x="54.999794"
         y="138.18201"
         sodipodi:type="rect"
         transform="translate(-7.6458151,-54.056418)"
         d="m 56.999794,138.18201 h 18 v 24.342 h -20 v -22.342 a 2,2 135 0 1 2,-2 z"
         inkscape:path-effect="#path-effect8" />
    </g>
    <g
       inkscape:groupmode="layer"
       id="layer6"
       inkscape:label="hair strip 4"
       transform="translate(0,2.9104167)"
       style="display:inline">
      <circle
         style="display:inline;fill:#000000;stroke:#000000;stroke-width:5;stroke-linejoin:round;stroke-dasharray:none;stroke-opacity:1;paint-order:stroke fill markers"
         id="path5-8-7"
         cx="124.99979"
         cy="162.524"
         r="10"
         transform="translate(-7.6458151,-54.056418)" />
      <rect
         style="display:inline;fill:#000000;stroke:none;stroke-width:5;stroke-linejoin:round;stroke-dasharray:none;stroke-opacity:1;paint-order:stroke fill markers"
         id="rect6-9-8"
         width="20"
         height="24.341999"
         x="114.99979"
         y="138.18201"
         inkscape:label="rect6-9-8"
         transform="translate(-7.6458151,-54.056418)" />
    </g>
    <g
       inkscape:groupmode="layer"
       id="layer5"
       inkscape:label="hair strip 3"
       transform="translate(0,2.9104167)"
       style="display:inline">
      <circle
         style="display:inline;fill:#333333;stroke:#000000;stroke-width:5;stroke-linejoin:round;stroke-dasharray:none;stroke-opacity:1;paint-order:stroke fill markers"
         id="path5-2"
         cx="104.99979"
         cy="162.524"
         r="10"
         transform="translate(-7.6458151,-54.056418)" />
      <rect
         style="display:inline;fill:#333333;stroke:none;stroke-width:5;stroke-linejoin:round;stroke-dasharray:none;stroke-opacity:1;paint-order:stroke fill markers"
         id="rect6-3"
         width="20"
         height="24.341999"
         x="87.353981"
         y="84.125587" />
    </g>
    <g
       inkscape:groupmode="layer"
       id="layer7"
       inkscape:label="hair strip 5"
       transform="translate(0,2.9104167)"
       style="display:inline">
      <circle
         style="display:inline;fill:#333333;stroke:#000000;stroke-width:5;stroke-linejoin:round;stroke-dasharray:none;stroke-opacity:1;paint-order:stroke fill markers"
         id="path5-8-7-3"
         cx="144.99979"
         cy="162.524"
         r="10"
         transform="translate(-7.6458151,-54.056418)" />
      <path
         style="display:inline;fill:#333333;stroke:none;stroke-width:5;stroke-linejoin:round;stroke-dasharray:none;stroke-opacity:1;paint-order:stroke fill markers"
         id="rect6-3-7"
         width="20"
         height="24.341999"
         x="134.99979"
         y="138.18201"
         sodipodi:type="rect"
         transform="translate(-7.6458151,-54.056418)"
         d="m 134.99979,138.18201 h 17 a 3,3 45 0 1 3,3 v 21.342 h -20 z"
         inkscape:path-effect="#path-effect6" />
    </g>
  </g>
  <g
     inkscape:groupmode="layer"
     id="layer2"
     inkscape:label="CogWheel"
     style="display:inline"
     transform="translate(-7.2716377,-51.146)">
    <path
       d="m 92.282703,53.646001 c -0.501509,0 -0.754371,0.312148 -0.908004,0.657736 l -8.961164,20.157537 a 77.298879,77.298879 0 0 0 -7.83e-4,0 77.298879,77.298879 0 0 0 -14.433433,5.979065 L 47.389288,72.52326 c -0.09627,-0.09627 -0.226414,-0.145124 -0.369927,-0.150163 -0.239188,-0.0085 -0.515881,0.105289 -0.73751,0.326912 L 28.82643,90.156213 c -0.354622,0.354613 -0.313273,0.753644 -0.177534,1.106652 l 7.917077,20.590815 a 77.298879,77.298879 0 0 0 -5.978282,14.43344 l -20.158317,8.96194 c -0.363044,0 -0.6577363,0.40652 -0.6577363,0.90801 v 24.68582 c 0,0.5015 0.3121483,0.75438 0.6577363,0.90801 l 20.158317,8.96194 a 77.298879,77.298879 0 0 0 5.978282,14.43344 l -7.917077,20.59081 c -0.256711,0.25673 -0.177074,0.75204 0.177534,1.10666 l 17.455421,17.4562 c 0.35462,0.35463 0.754435,0.31328 1.107437,0.17753 l 20.590031,-7.91786 a 77.298879,77.298879 0 0 0 14.433433,5.97906 77.298879,77.298879 0 0 0 7.83e-4,0 l 8.961164,20.15754 c 0,0.36305 0.406513,0.65774 0.908004,0.65774 H 116.9693 c 0.50151,0 0.75439,-0.31214 0.90802,-0.65774 l 8.96115,-20.15754 a 77.298879,77.298879 0 0 0 7.9e-4,0 77.298879,77.298879 0 0 0 14.43265,-5.97906 77.298879,77.298879 0 0 0 7.9e-4,0 l 20.59002,7.91786 c 0.25671,0.2567 0.75283,0.17708 1.10744,-0.17753 l 17.45542,-17.4562 c 0.35461,-0.35462 0.3133,-0.75365 0.17754,-1.10666 l -7.91708,-20.59004 a 77.298879,77.298879 0 0 0 0,-7.7e-4 77.298879,77.298879 0 0 0 5.97828,-14.43344 l 20.15832,-8.96194 c 0.36304,0 0.65695,-0.40652 0.65695,-0.90801 v -24.68582 c 0,-0.5015 -0.31136,-0.75437 -0.65695,-0.90801 l -20.15832,-8.96194 a 77.298879,77.298879 0 0 0 -5.97828,-14.43344 77.298879,77.298879 0 0 0 0,-7.8e-4 l 7.91708,-20.590035 c 0.25671,-0.256708 0.17707,-0.752039 -0.17754,-1.106652 L 162.97016,72.70001 c -0.35463,-0.354621 -0.75444,-0.312475 -1.10744,-0.17675 l -20.59002,7.917079 a 77.298879,77.298879 0 0 0 -7.9e-4,0 77.298879,77.298879 0 0 0 -14.43265,-5.979065 77.298879,77.298879 0 0 1 -7.9e-4,0 l -8.96115,-20.157537 c 0,-0.363044 -0.40653,-0.657736 -0.90802,-0.657736 z m 12.342907,34.827154 a 60.02697,60.02697 0 0 1 60.0276,60.026825 60.02697,60.02697 0 0 1 -60.0276,60.02681 60.02697,60.02697 0 0 1 -60.026812,-60.02681 60.02697,60.02697 0 0 1 60.026812,-60.026825 z"
       style="display:inline;fill:#c5c5c5;fill-opacity:1;fill-rule:nonzero;stroke:#545454;stroke-width:5;stroke-linejoin:round;stroke-dasharray:none;stroke-opacity:1;paint-order:stroke fill markers"
       id="path4"
       inkscape:label="CogWheel" />
    <path
       d="m 92.282708,53.646 c -0.50151,0 -0.75437,0.312148 -0.90801,0.657736 l -8.96116,20.157537 a 77.298879,77.298879 0 0 0 -7.8e-4,0 77.298879,77.298879 0 0 0 -14.43344,5.979065 l -20.59003,-7.917079 c -0.0963,-0.09627 -0.22641,-0.145124 -0.36993,-0.150163 -0.23918,-0.0085 -0.51588,0.105289 -0.7375,0.326911 l -17.45543,17.456205 c -0.35462,0.354613 -0.31327,0.753644 -0.17753,1.106652 l 7.91708,20.590816 a 77.298879,77.298879 0 0 0 -5.97828,14.43344 l -20.158322,8.96194 c -0.363044,0 -0.6577361,0.40652 -0.6577361,0.90801 v 24.68582 c 0,0.5015 0.3121481,0.75438 0.6577361,0.90801 l 20.158322,8.96194 a 77.298879,77.298879 0 0 0 5.97828,14.43344 l -7.91708,20.59081 c -0.25671,0.25673 -0.17707,0.75204 0.17753,1.10666 l 17.45543,17.4562 c 0.35462,0.35463 0.75443,0.31328 1.10743,0.17753 l 20.59003,-7.91786 a 77.298879,77.298879 0 0 0 14.43344,5.97906 77.298879,77.298879 0 0 0 7.8e-4,0 l 8.96116,20.15754 c 0,0.36305 0.40652,0.65774 0.90801,0.65774 H 116.9693 c 0.50151,0 0.75439,-0.31214 0.90802,-0.65774 l 8.96115,-20.15754 a 77.298879,77.298879 0 0 0 7.9e-4,0 77.298879,77.298879 0 0 0 14.43265,-5.97906 77.298879,77.298879 0 0 0 7.9e-4,0 l 20.59002,7.91786 c 0.25671,0.2567 0.75283,0.17708 1.10744,-0.17753 l 17.45542,-17.4562 c 0.35461,-0.35462 0.3133,-0.75365 0.17754,-1.10666 l -7.91708,-20.59004 a 77.298879,77.298879 0 0 0 0,-7.7e-4 77.298879,77.298879 0 0 0 5.97828,-14.43344 l 20.15832,-8.96194 c 0.36304,0 0.65695,-0.40652 0.65695,-0.90801 v -24.68582 c 0,-0.5015 -0.31136,-0.75437 -0.65695,-0.90801 l -20.15832,-8.96194 a 77.298879,77.298879 0 0 0 -5.97828,-14.43344 77.298879,77.298879 0 0 0 0,-7.8e-4 l 7.91708,-20.590036 c 0.25671,-0.256708 0.17707,-0.752039 -0.17754,-1.106652 L 162.97016,72.700009 c -0.35463,-0.354621 -0.75444,-0.312475 -1.10744,-0.17675 l -20.59002,7.917079 a 77.298879,77.298879 0 0 0 -7.9e-4,0 77.298879,77.298879 0 0 0 -14.43265,-5.979065 77.298879,77.298879 0 0 1 -7.9e-4,0 l -8.96115,-20.157537 c 0,-0.363044 -0.40653,-0.657736 -0.90802,-0.657736 z m 12.342902,34.827154 a 60.02697,60.02697 0 0 1 60.0276,60.026826 60.02697,60.02697 0 0 1 -60.0276,60.02681 60.02697,60.02697 0 0 1 -60.026812,-60.02681 60.02697,60.02697 0 0 1 60.026812,-60.026826 z"
       style="display:inline;fill:url(#linearGradient44);fill-opacity:1;fill-rule:nonzero;stroke:#545454;stroke-width:5;stroke-linejoin:round;stroke-dasharray:none;stroke-opacity:1;paint-order:stroke fill markers"
       id="path4-8"
       inkscape:label="CogWheel" />
  </g>
</svg>
