<?xml version="1.0" ?><!DOCTYPE svg  PUBLIC '-//W3C//DTD SVG 1.1//EN'  'http://www.w3.org/Graphics/SVG/1.1/DTD/svg11.dtd'><svg height="100%" style="fill-rule:evenodd;clip-rule:evenodd;stroke-linejoin:round;stroke-miterlimit:2;" version="1.1" viewBox="0 0 32 32" width="100%" xml:space="preserve" xmlns="http://www.w3.org/2000/svg" xmlns:serif="http://www.serif.com/" xmlns:xlink="http://www.w3.org/1999/xlink"><path d="M6.246,20.084c-0.121,0.102 -0.218,0.234 -0.28,0.385l-2.911,7.154c-0.151,0.373 -0.065,0.8 0.219,1.084c0.285,0.285 0.712,0.371 1.084,0.219l7.154,-2.911c0.138,-0.056 0.259,-0.141 0.357,-0.246c0.02,-0.018 12.024,-11.991 16.2,-16.157c0.563,-0.563 0.88,-1.326 0.881,-2.123c0,-0.796 -0.316,-1.56 -0.879,-2.123c-0.455,-0.455 -0.959,-0.959 -1.414,-1.414c-1.171,-1.17 -3.068,-1.172 -4.24,-0.002c-4.173,4.163 -16.162,16.124 -16.171,16.134Zm-0.444,6.096l1.449,-3.561c-0,-0 2.112,2.112 2.112,2.112l-3.561,1.449Zm15.866,-18.659l-13.359,13.328l2.829,2.828l13.359,-13.327l-2.829,-2.829Zm4.245,1.416l0.743,-0.741c0.188,-0.188 0.294,-0.442 0.294,-0.708c-0,-0.265 -0.106,-0.52 -0.293,-0.707l-1.414,-1.415c-0.391,-0.39 -1.023,-0.39 -1.414,-0l-0.745,0.743l2.829,2.828Z"/><g id="Icon"/></svg>